<svg width="512" height="500" viewBox="0 0 512 500" fill="none" xmlns="http://www.w3.org/2000/svg">
<path d="M208 167.25H207.57L181.12 256.21H235.31L208 167.25ZM208 167.25H207.57L181.12 256.21H235.31L208 167.25ZM421.33 0H90.67C40.53 0 0 40.53 0 90.67V408.53C0 458.67 40.53 499.2 90.67 499.2H421.33C471.47 499.2 512 458.67 512 408.53V90.67C512 40.53 471.47 0 421.33 0ZM313.6 352.64H269.01C267.52 352.85 266.03 351.79 265.6 350.29L248.11 299.52H168.75L152.53 349.65C152.11 351.57 150.4 352.85 148.48 352.64H108.37C106.03 352.64 105.39 351.36 106.03 348.8L174.72 151.04C175.36 148.91 176 146.56 176.85 144C177.71 139.52 178.13 134.83 178.13 130.13C177.92 129.07 178.77 128 179.84 127.79H235.09C236.8 127.79 237.65 128.43 237.87 129.49L315.73 349.23C316.37 351.57 315.73 352.64 313.6 352.64ZM386.13 349.44C386.13 351.79 385.28 352.85 383.36 352.85H341.55C339.41 352.85 338.35 351.57 338.35 349.44V185.17C338.35 183.04 339.2 182.19 341.12 182.19H383.36C385.28 182.19 386.13 183.25 386.13 185.17V349.44ZM381.65 156.8C376.75 161.92 369.49 164.69 362.24 164.27C355.2 164.48 348.37 161.71 343.25 156.8C338.35 151.47 335.79 144.43 336 137.17C335.79 129.92 338.56 123.09 343.68 118.19C348.8 113.28 355.63 110.72 362.67 110.72C370.99 110.72 377.39 113.28 382.08 118.19C386.77 123.31 389.33 130.13 389.12 137.17C389.33 144.43 386.77 151.47 381.65 156.8ZM207.57 167.25L181.12 256.21H235.31L208 167.25H207.57Z" fill="#383838"/>
</svg>
