<svg width="512" height="500" viewBox="0 0 512 500" fill="none" xmlns="http://www.w3.org/2000/svg">
<path d="M224.901 185.497C228.382 190.961 230.199 197.506 229.97 204.37C229.97 213.76 227.84 221.01 223.36 226.35C213.472 238.136 195.952 241.49 181.33 241.49H170.03C167.47 241.49 164.69 241.28 161.71 241.07V169.39C163.2 169.17 166.19 168.96 170.45 169.17C174.51 168.96 179.41 168.96 184.96 168.96C199.661 168.96 216.444 172.226 224.901 185.497Z" fill="#383838"/>
<path d="M421.33 0H90.67C40.53 0 0 40.53 0 90.67V408.53C0 458.67 40.53 499.2 90.67 499.2H421.33C471.47 499.2 512 458.67 512 408.53V90.67C512 40.53 471.47 0 421.33 0ZM263.68 248.53C255.15 260.48 243.2 269.44 229.33 274.56C214.83 279.89 198.83 281.81 181.33 281.81C176.21 281.81 172.8 281.81 170.67 281.6C168.53 281.39 165.55 281.39 161.49 281.39V349.87C161.71 351.36 160.64 352.64 159.15 352.85H117.76C116.05 352.85 115.2 352 115.2 350.08V130.56C115.2 129.07 115.84 128.21 117.33 128.21C120.96 128.21 124.37 128.21 129.28 128C134.4 127.79 139.73 127.79 145.49 127.57C151.25 127.36 157.44 127.36 164.05 127.15C170.67 126.93 177.07 126.93 183.47 126.93C200.96 126.93 215.47 129.07 227.41 133.55C238.08 137.17 247.89 143.15 256 151.04C262.83 157.87 268.16 166.19 271.57 175.36C274.77 184.32 276.48 193.49 276.48 203.09C276.48 221.44 272.21 236.59 263.68 248.53ZM414.93 331.52C408.96 340.05 400.64 346.67 391.04 350.51C380.59 354.99 367.79 357.33 352.43 357.33C342.61 357.33 333.01 356.48 323.41 354.56C315.95 353.28 308.48 350.93 301.65 347.73C300.16 346.88 299.09 345.39 299.31 343.68V306.56C299.31 305.92 299.52 305.07 300.16 304.64C300.8 304.21 301.44 304.43 302.08 304.85C310.4 309.76 319.15 313.17 328.53 315.31C336.64 317.44 345.17 318.51 353.71 318.51C361.81 318.51 367.57 317.44 371.41 315.52C374.83 314.03 377.17 310.4 377.17 306.56C377.17 303.57 375.47 300.8 372.05 298.03C368.64 295.25 361.6 292.05 351.15 288C340.27 284.16 330.24 279.04 320.85 272.64C314.24 267.95 308.69 261.76 304.64 254.51C301.23 247.68 299.52 240.21 299.73 232.75C299.73 223.57 302.29 214.83 306.99 206.93C312.32 198.4 320.21 191.57 329.39 187.31C339.41 182.19 352 179.84 367.15 179.84C375.89 179.84 384.85 180.48 393.6 181.76C400 182.61 406.19 184.32 411.95 186.67C412.8 186.88 413.65 187.73 414.08 188.59C414.29 189.44 414.51 190.29 414.51 191.15V225.92C414.51 226.77 414.08 227.63 413.44 228.05C411.52 228.48 410.45 228.48 409.6 228.05C403.2 224.64 396.37 222.29 389.12 220.8C381.23 219.09 373.33 218.03 365.23 218.03C360.96 217.81 356.48 218.45 352.43 219.52C349.65 220.16 347.31 221.65 345.81 223.79C344.75 225.49 344.11 227.63 344.11 229.55C344.11 231.47 344.96 233.39 346.24 235.09C348.16 237.44 350.72 239.36 353.49 240.85C358.4 243.41 363.52 245.76 368.64 247.89C380.16 251.73 391.25 257.07 401.49 263.47C408.53 267.95 414.29 273.92 418.35 281.17C421.76 288 423.47 295.47 423.25 303.15C423.47 313.17 420.48 323.2 414.93 331.52Z" fill="#383838"/>
</svg>
