<svg width="69" height="51" viewBox="0 0 69 51" fill="none" xmlns="http://www.w3.org/2000/svg">
<path d="M16.504 0C26.0866 0 33.004 7.91114 33.0037 19.6249C32.9424 36.6443 20.148 48.6775 1.69032 50.9884C-0.022114 51.2028 -0.682406 48.8306 0.894525 48.1294C7.97689 44.9802 11.5539 40.984 12.0159 37.0285C12.3611 34.0733 10.7546 31.4846 8.73737 30.9999C3.50782 29.7433 0.00397461 23.2308 0.00397461 16.5C0.00397461 7.3873 7.39128 0 16.504 0Z" fill="#D0E1DC"/>
<path d="M52.504 0C62.0866 0 69.004 7.91114 69.0038 19.6249C68.9424 36.6443 56.148 48.6775 37.6903 50.9884C35.9779 51.2028 35.3176 48.8306 36.8945 48.1294C43.9769 44.9802 47.5539 40.984 48.0159 37.0285C48.3611 34.0733 46.7546 31.4846 44.7374 30.9999C39.5078 29.7433 36.004 23.2308 36.004 16.5C36.004 7.3873 43.3913 0 52.504 0Z" fill="#D0E1DC"/>
</svg>
