<svg width="163" height="163" viewBox="0 0 163 163" fill="none" xmlns="http://www.w3.org/2000/svg">
<path d="M81.5 0L85.4016 50.6152L101.768 2.56047L92.9598 52.5558L120.763 10.081L99.7979 56.3151L137.291 22.0891L105.486 61.6568L150.313 37.8301L109.667 68.2454L159.011 56.3151L112.079 75.6668L162.839 76.3826L112.569 83.4547L161.556 96.7716L111.107 91.1198L155.243 116.201L107.784 98.1804L144.297 133.45L102.81 104.193L129.404 147.435L96.4971 108.78L111.502 157.277L89.2418 111.652L91.7147 162.357L81.5 112.63L71.2853 162.357L73.7582 111.652L51.4978 157.277L66.5029 108.78L33.5955 147.435L60.1899 104.193L18.7032 133.45L55.2159 98.1804L7.75659 116.201L51.8934 91.1198L1.44359 96.7716L50.4312 83.4547L0.16082 76.3826L50.9212 75.6668L3.98889 56.3151L53.3325 68.2454L12.6873 37.8301L57.5137 61.6568L25.7094 22.0891L63.2021 56.3151L42.2371 10.081L70.0402 52.5558L61.2318 2.56047L77.5984 50.6152L81.5 0Z" fill="#EAC9CB"/>
</svg>
