<svg width="201" height="208" viewBox="0 0 201 208" fill="none" xmlns="http://www.w3.org/2000/svg">
<path d="M9.85668 36.1695L0.670166 17.3522L2.93472 16.2466L11.1605 33.096L20.0839 28.7396L21.0446 30.7076L9.85668 36.1695Z" fill="#8D8D8D"/>
<path d="M30.1283 27.996C29.0624 28.34 28.0429 28.4695 27.0697 28.3843C26.1155 28.293 25.2263 28.0125 24.4023 27.543C23.5911 27.0482 22.8732 26.3867 22.2486 25.5586C21.6179 24.7113 21.1151 23.7072 20.7404 22.5462C20.3595 21.3661 20.1773 20.2481 20.1937 19.192C20.2291 18.1297 20.4343 17.1703 20.8093 16.3137C21.1782 15.4381 21.7135 14.6874 22.4152 14.0616C23.1359 13.4296 24.0006 12.9509 25.0094 12.6253C25.9991 12.3058 26.952 12.1979 27.8681 12.3015C28.8033 12.399 29.6608 12.6791 30.4407 13.1419C31.2144 13.5857 31.8948 14.1962 32.4819 14.9735C33.0691 15.7507 33.5316 16.6627 33.8694 17.7095L34.2196 18.7944L23.3137 22.3146L23.5348 22.9998C23.7437 23.6469 24.0419 24.2127 24.4294 24.697C24.8169 25.1814 25.2655 25.562 25.7752 25.8389C26.3039 26.1095 26.8811 26.27 27.5068 26.3202C28.1453 26.3453 28.8072 26.2473 29.4924 26.0261C30.4821 25.7066 31.2649 25.2018 31.8407 24.5115C32.4165 23.8213 32.7658 23.0151 32.8884 22.0928L34.9414 22.6911C34.8231 23.8221 34.3545 24.8771 33.5356 25.8559C32.7296 26.8096 31.5938 27.523 30.1283 27.996ZM25.6176 14.5096C24.9895 14.7123 24.4458 15.0139 23.9866 15.4143C23.5274 15.8147 23.1625 16.2792 22.8918 16.8079C22.6401 17.3305 22.4892 17.9046 22.439 18.5303C22.4016 19.1308 22.4874 19.7546 22.6962 20.4018L22.7607 20.6016L31.2114 17.8739L31.1101 17.5599C30.9012 16.9128 30.6061 16.3565 30.2247 15.8912C29.8624 15.4197 29.4389 15.052 28.9544 14.788C28.4828 14.4989 27.9563 14.3326 27.3748 14.2891C26.8124 14.2395 26.2266 14.313 25.6176 14.5096Z" fill="#8D8D8D"/>
<path d="M46.3595 23.7409C45.1961 23.9386 44.2831 23.7591 43.6205 23.2023C42.9775 22.6421 42.5689 21.8494 42.3946 20.8241L40.7354 11.0641L35.6484 11.9289L35.3065 9.91775L39.0922 9.2742C39.6048 9.18705 39.943 9.02814 40.1066 8.79745C40.2867 8.54369 40.3331 8.16049 40.2459 7.64784L39.5672 3.65512L41.8445 3.26799L42.7596 8.65076L49.7099 7.46925L50.0518 9.48039L43.1015 10.6619L45.012 21.9007L51.9623 20.7192L52.3042 22.7303L46.3595 23.7409Z" fill="#8D8D8D"/>
<path d="M60.7519 0.139199L64.6209 0.0494385L61.3645 8.43722L59.3551 8.48384L60.7519 0.139199Z" fill="#8D8D8D"/>
<path d="M78.4687 23.5121C76.8603 23.3183 75.5026 22.8828 74.3957 22.2055C73.311 21.5108 72.4166 20.6577 71.7125 19.6462L73.4896 18.4401C74.131 19.303 74.8634 19.9956 75.6868 20.5178C76.5103 21.0401 77.5375 21.3753 78.7686 21.5237C79.96 21.6672 80.9581 21.5759 81.7629 21.2498C82.5899 20.9063 83.0585 20.2778 83.1685 19.3644C83.2163 18.9673 83.1764 18.6301 83.0486 18.3528C82.9431 18.0581 82.7709 17.8157 82.5319 17.6258C82.2929 17.4358 82.0193 17.282 81.7112 17.1643C81.4054 17.0268 81.0775 16.9067 80.7272 16.804L78.3577 16.156C77.8312 16.012 77.2586 15.8322 76.6399 15.6166C76.0411 15.4035 75.5015 15.1169 75.0211 14.7568C74.5431 14.3769 74.1565 13.9073 73.8613 13.348C73.5859 12.7911 73.4985 12.0956 73.599 11.2617C73.6923 10.4873 73.9213 9.84 74.2861 9.3199C74.6732 8.78234 75.1675 8.35842 75.7689 8.04813C76.3727 7.71798 77.0627 7.509 77.8388 7.4212C78.6172 7.31354 79.4532 7.31353 80.3468 7.42118C81.7367 7.58863 82.9117 7.95178 83.8718 8.51062C84.8517 9.07186 85.6623 9.78393 86.3037 10.6468L84.5791 11.9197C84.4267 11.6797 84.2247 11.4338 83.973 11.1819C83.7435 10.9125 83.441 10.6646 83.0654 10.438C82.7121 10.194 82.2845 9.98132 81.7825 9.79999C81.2806 9.61865 80.6921 9.48732 80.017 9.40598C78.8057 9.26006 77.8474 9.35612 77.1419 9.69416C76.4562 10.0346 76.0656 10.6019 75.9699 11.3962C75.922 11.7933 75.9509 12.1393 76.0564 12.434C76.1841 12.7113 76.3675 12.9449 76.6065 13.1348C76.8455 13.3248 77.1179 13.4885 77.4236 13.6261C77.7516 13.7462 78.0808 13.8563 78.4112 13.9566L80.7807 14.6046C81.3271 14.7511 81.8997 14.9308 82.4985 15.144C83.0973 15.3571 83.6357 15.6537 84.1137 16.0336C84.5941 16.3936 84.9719 16.8521 85.2473 17.409C85.5425 17.9684 85.6399 18.665 85.5394 19.499C85.3552 21.0279 84.6172 22.1376 83.3253 22.8281C82.0533 23.5209 80.4344 23.7489 78.4687 23.5121Z" fill="#8D8D8D"/>
<path d="M98.706 11.1498L100.723 11.8344L98.0986 25.0733L98.3542 25.1601L105.155 13.3386L107.655 14.1871L105.854 27.7057L106.11 27.7925L112.086 15.6913L114.046 16.3566L106.827 30.2535L103.872 29.2507L105.708 16.1877L105.481 16.1106L98.9292 27.573L95.9748 26.5702L98.706 11.1498Z" fill="#8D8D8D"/>
<path d="M116.301 35.0956C115.337 34.6069 114.549 33.9941 113.937 33.257C113.342 32.529 112.926 31.7126 112.69 30.8078C112.481 29.8943 112.455 28.9281 112.613 27.9094C112.78 26.8728 113.144 25.8016 113.705 24.6958C114.257 23.6079 114.902 22.6904 115.64 21.9434C116.378 21.1964 117.173 20.6465 118.025 20.2938C118.903 19.9322 119.812 19.7766 120.751 19.8268C121.708 19.8861 122.667 20.1601 123.631 20.6488C124.594 21.1374 125.373 21.7457 125.968 22.4737C126.581 23.2108 126.992 24.0361 127.201 24.9497C127.437 25.8544 127.472 26.8251 127.305 27.8617C127.137 28.8983 126.778 29.9605 126.226 31.0485C125.665 32.1543 125.015 33.0807 124.278 33.8277C123.549 34.5569 122.745 35.1022 121.866 35.4638C121.015 35.8165 120.11 35.9633 119.154 35.904C118.215 35.8537 117.264 35.5843 116.301 35.0956ZM117.237 33.2496C118.432 33.8559 119.576 33.9879 120.67 33.6455C121.763 33.3031 122.689 32.3828 123.45 30.8846L124.454 28.9048C125.214 27.4066 125.41 26.1153 125.04 25.0309C124.671 23.9464 123.889 23.101 122.694 22.4947C121.499 21.8884 120.355 21.7565 119.262 22.0989C118.168 22.4413 117.242 23.3616 116.482 24.8598L115.477 26.8395C114.717 28.3377 114.522 29.629 114.891 30.7135C115.26 31.7979 116.042 32.6433 117.237 33.2496Z" fill="#8D8D8D"/>
<path d="M126.165 37.7036L129.869 40.3117L136.433 30.9907L132.729 28.3826L133.903 26.7146L139.569 30.7045L137.324 33.8933L137.447 33.9796C138.411 33.1663 139.448 32.735 140.559 32.6857C141.698 32.6315 142.832 33.0017 143.96 33.7962L145.726 35.0398L144.344 37.0021L141.965 35.3267C140.837 34.5322 139.691 34.2144 138.527 34.3734C137.38 34.5439 136.432 35.1606 135.683 36.2235L131.832 41.6935L136.737 45.1479L135.563 46.8159L124.991 39.3716L126.165 37.7036Z" fill="#8D8D8D"/>
<path d="M154.07 33.4296L155.816 35.0761L146.204 45.2691L146.292 45.3515L150.005 45.3485L157.011 45.4399L159.15 47.4569L150.322 47.4615L149.076 59.234L146.915 57.1965L148.044 47.21L144.434 47.1462L140.586 51.2278L138.839 49.5813L154.07 33.4296Z" fill="#8D8D8D"/>
<path d="M158.824 72.1243C158.153 71.1535 157.93 70.2501 158.154 69.4142C158.391 68.5948 158.936 67.8895 159.792 67.2983L167.937 61.6708L165.004 57.4255L166.682 56.2659L168.865 59.4252C169.161 59.8531 169.448 60.0924 169.726 60.1433C170.032 60.1992 170.399 60.0794 170.827 59.7838L174.159 57.4817L175.472 59.3822L170.98 62.4858L174.987 68.286L173.309 69.4456L169.301 63.6454L159.922 70.1255L163.93 75.9258L162.251 77.0854L158.824 72.1243Z" fill="#8D8D8D"/>
<path d="M166.596 86.1911C166.114 85.2242 165.848 84.2623 165.796 83.3051C165.753 82.3659 165.906 81.4628 166.257 80.5958C166.634 79.7379 167.19 78.9473 167.924 78.2241C168.677 77.492 169.608 76.8497 170.719 76.2971C171.811 75.7534 172.876 75.402 173.914 75.2429C174.951 75.0837 175.917 75.1168 176.811 75.342C177.732 75.5762 178.554 75.9935 179.278 76.5941C180.01 77.2125 180.617 78.0052 181.098 78.972C181.579 79.9389 181.842 80.8919 181.885 81.8311C181.937 82.7883 181.774 83.6958 181.397 84.5538C181.046 85.4208 180.495 86.2203 179.742 86.9524C178.99 87.6845 178.067 88.3224 176.975 88.866C175.865 89.4186 174.791 89.7745 173.753 89.9336C172.733 90.0838 171.763 90.0419 170.842 89.8077C169.948 89.5825 169.135 89.1606 168.403 88.5422C167.679 87.9416 167.077 87.1579 166.596 86.1911ZM168.449 85.2687C169.046 86.4683 169.885 87.2568 170.967 87.6344C172.048 88.012 173.341 87.8265 174.845 87.0778L176.832 86.0886C178.336 85.3399 179.264 84.4203 179.615 83.3297C179.965 82.2392 179.842 81.0941 179.245 79.8945C178.648 78.6949 177.808 77.9063 176.727 77.5287C175.645 77.1511 174.353 77.3366 172.849 78.0853L170.861 79.0746C169.357 79.8232 168.43 80.7428 168.079 81.8334C167.728 82.924 167.851 84.0691 168.449 85.2687Z" fill="#8D8D8D"/>
<path d="M173.815 109.127C172.332 109.612 171.037 109.351 169.93 108.346C168.803 107.346 167.836 105.611 167.028 103.14C166.251 100.764 166.005 98.9502 166.291 97.6995C166.582 96.4679 167.317 95.6594 168.496 95.274C169.294 95.0129 169.981 95.02 170.555 95.2953C171.129 95.5705 171.644 96.0541 172.102 96.7461L172.444 96.6342C172.517 96.1477 172.677 95.7375 172.926 95.4037C173.174 95.0699 173.546 94.8222 174.04 94.6606C174.8 94.412 175.451 94.4726 175.993 94.8425C176.541 95.2315 177.035 95.7751 177.473 96.4733L177.587 96.436C177.688 95.393 178.044 94.4874 178.656 93.7193C179.274 92.9702 180.105 92.4247 181.151 92.0829C181.892 91.8404 182.62 91.7497 183.334 91.8107C184.049 91.8717 184.705 92.0779 185.304 92.4292C185.928 92.7932 186.479 93.2866 186.956 93.9091C187.433 94.5316 187.812 95.2706 188.091 96.1261C188.452 97.2286 188.569 98.2634 188.443 99.2303L188.7 99.1464C189.27 98.9599 189.789 98.9376 190.256 99.0794C190.724 99.2212 191.063 99.6153 191.274 100.262L192.16 102.97L190.164 103.623L189.082 100.315L188.084 100.642C187.802 101.323 187.394 101.909 186.86 102.399C186.326 102.89 185.669 103.262 184.89 103.517C184.148 103.76 183.417 103.841 182.697 103.761C181.983 103.7 181.316 103.497 180.699 103.152C180.1 102.8 179.559 102.304 179.075 101.662C178.598 101.04 178.22 100.301 177.94 99.4454C177.859 99.1982 177.791 98.9575 177.736 98.7232C177.68 98.4889 177.634 98.2514 177.597 98.0109C177.485 97.7952 177.34 97.5793 177.165 97.3633C177.008 97.141 176.819 96.9502 176.599 96.7908C176.397 96.6252 176.18 96.507 175.946 96.4361C175.712 96.3652 175.472 96.3701 175.225 96.4509C174.788 96.5939 174.565 96.9089 174.556 97.3958C174.565 97.8765 174.685 98.4686 174.915 99.1719L175.978 102.423C176.6 104.323 176.689 105.82 176.247 106.911C175.823 107.997 175.012 108.735 173.815 109.127ZM173.001 107.026C173.591 106.833 173.988 106.44 174.194 105.847C174.381 105.26 174.282 104.377 173.896 103.198L172.227 98.094C171.505 97.236 170.678 96.9594 169.746 97.2639C169.1 97.4753 168.633 97.9122 168.344 98.5746C168.037 99.2433 168.079 100.176 168.471 101.374L169.198 103.598C169.633 104.929 170.181 105.896 170.841 106.501C171.483 107.112 172.203 107.287 173.001 107.026ZM179.708 98.8673C180.081 100.008 180.621 100.757 181.327 101.115C182.039 101.493 182.833 101.538 183.707 101.252L184.534 100.982C185.409 100.696 186.012 100.194 186.345 99.4745C186.704 98.7682 186.696 97.8447 186.323 96.7041C185.95 95.5636 185.411 94.8142 184.704 94.456C184.017 94.0915 183.236 94.0523 182.362 94.3382L181.535 94.6086C180.66 94.8945 180.044 95.3906 179.686 96.097C179.328 96.8033 179.335 97.7267 179.708 98.8673Z" fill="#8D8D8D"/>
<path d="M176.674 117.305C176.482 116.202 176.496 115.174 176.717 114.222C176.94 113.29 177.342 112.449 177.922 111.698C178.525 110.964 179.28 110.346 180.188 109.843C181.115 109.337 182.179 108.979 183.381 108.77C184.603 108.558 185.735 108.533 186.779 108.697C187.826 108.88 188.747 109.218 189.543 109.709C190.359 110.196 191.027 110.831 191.549 111.613C192.074 112.415 192.427 113.338 192.609 114.382C192.787 115.407 192.761 116.366 192.53 117.258C192.303 118.171 191.906 118.981 191.339 119.688C190.792 120.393 190.092 120.981 189.24 121.454C188.389 121.927 187.421 122.257 186.337 122.446L185.214 122.641L183.251 111.35L182.542 111.474C181.872 111.59 181.27 111.807 180.736 112.123C180.203 112.439 179.763 112.83 179.418 113.296C179.076 113.782 178.836 114.331 178.699 114.943C178.585 115.572 178.59 116.241 178.713 116.951C178.892 117.975 179.282 118.821 179.885 119.487C180.488 120.154 181.238 120.612 182.134 120.862L181.255 122.812C180.152 122.537 179.172 121.925 178.317 120.978C177.486 120.047 176.938 118.822 176.674 117.305ZM190.658 114.722C190.545 114.071 190.322 113.491 189.99 112.98C189.658 112.47 189.249 112.043 188.763 111.702C188.281 111.379 187.733 111.15 187.121 111.013C186.531 110.892 185.901 110.89 185.232 111.006L185.025 111.042L186.546 119.791L186.871 119.734C187.541 119.618 188.133 119.403 188.647 119.091C189.164 118.798 189.588 118.43 189.917 117.987C190.269 117.56 190.507 117.062 190.631 116.492C190.759 115.942 190.768 115.352 190.658 114.722Z" fill="#8D8D8D"/>
<path d="M178.601 133.967C178.57 132.787 178.876 131.909 179.521 131.331C180.166 130.774 181.008 130.481 182.048 130.453L191.945 130.187L191.806 125.028L193.845 124.974L193.948 128.812C193.962 129.332 194.072 129.689 194.277 129.884C194.503 130.098 194.876 130.198 195.396 130.184L199.444 130.075L199.506 132.384L194.048 132.531L194.238 139.578L192.199 139.633L192.009 132.586L180.613 132.892L180.803 139.94L178.763 139.995L178.601 133.967Z" fill="#8D8D8D"/>
<path d="M200.591 146.084L200.313 148.468L191.135 147.396L191.121 147.516C191.48 147.718 191.814 147.959 192.124 148.237C192.454 148.517 192.728 148.841 192.947 149.209C193.163 149.596 193.323 150.038 193.427 150.533C193.53 151.029 193.544 151.594 193.47 152.23C193.282 153.839 192.615 155.07 191.468 155.923C190.341 156.778 188.844 157.096 186.977 156.878L177.114 155.726L177.393 153.343L186.838 154.446C188.249 154.61 189.328 154.424 190.075 153.887C190.842 153.353 191.295 152.489 191.434 151.297C191.49 150.821 191.485 150.347 191.419 149.876C191.353 149.405 191.222 148.977 191.026 148.592C190.829 148.206 190.555 147.882 190.203 147.62C189.851 147.357 189.427 147.197 188.93 147.139L178.262 145.893L178.541 143.509L200.591 146.084Z" fill="#8D8D8D"/>
<path d="M174.367 165.725C174.653 164.643 175.094 163.715 175.691 162.941C176.283 162.188 177 161.591 177.84 161.15C178.694 160.735 179.639 160.488 180.673 160.409C181.727 160.336 182.843 160.455 184.023 160.766C185.222 161.083 186.261 161.533 187.141 162.117C188.016 162.721 188.713 163.411 189.231 164.19C189.769 164.973 190.112 165.829 190.26 166.757C190.403 167.705 190.339 168.691 190.068 169.716C189.803 170.722 189.379 171.582 188.797 172.297C188.21 173.032 187.511 173.602 186.701 174.009C185.909 174.42 185.028 174.664 184.057 174.738C183.086 174.813 182.068 174.709 181.005 174.429L179.902 174.138L182.828 163.057L182.132 162.873C181.475 162.7 180.837 162.645 180.221 162.71C179.604 162.775 179.041 162.947 178.533 163.226C178.019 163.525 177.573 163.924 177.193 164.424C176.827 164.948 176.552 165.558 176.368 166.254C176.103 167.259 176.105 168.191 176.375 169.048C176.645 169.906 177.135 170.635 177.845 171.236L176.233 172.641C175.345 171.931 174.71 170.967 174.328 169.749C173.961 168.556 173.973 167.214 174.367 165.725ZM188.154 169.211C188.322 168.573 188.362 167.952 188.273 167.35C188.184 166.747 187.99 166.189 187.691 165.676C187.387 165.182 186.985 164.745 186.486 164.364C186.001 164.009 185.429 163.744 184.772 163.57L184.569 163.517L182.301 172.103L182.621 172.187C183.278 172.36 183.906 172.412 184.503 172.343C185.096 172.292 185.634 172.134 186.118 171.869C186.616 171.628 187.04 171.275 187.39 170.809C187.736 170.362 187.99 169.83 188.154 169.211Z" fill="#8D8D8D"/>
<path d="M173.98 175.601L172.216 179.774L182.715 184.214L184.48 180.041L186.359 180.836L183.66 187.219L180.068 185.7L180.009 185.838C181.008 186.608 181.65 187.53 181.933 188.606C182.227 189.707 182.106 190.894 181.568 192.165L180.727 194.154L178.516 193.219L179.65 190.539C180.187 189.268 180.255 188.081 179.853 186.977C179.444 185.892 178.64 185.096 177.443 184.59L171.281 181.984L168.944 187.51L167.065 186.716L172.101 174.807L173.98 175.601Z" fill="#8D8D8D"/>
<path d="M168.306 198.672L175.469 202.015L180.683 205.162L179.319 207.422L174.105 204.275L167.81 199.494L168.306 198.672ZM161.843 195.331C162.267 194.629 162.712 194.22 163.179 194.105C163.635 194.007 164.086 194.092 164.531 194.361L164.993 194.64C165.439 194.908 165.724 195.268 165.85 195.717C165.965 196.184 165.811 196.768 165.387 197.47C164.963 198.172 164.523 198.573 164.067 198.671C163.6 198.786 163.144 198.709 162.699 198.441L162.237 198.162C161.791 197.893 161.511 197.525 161.396 197.058C161.27 196.609 161.419 196.033 161.843 195.331Z" fill="#8D8D8D"/>
</svg>
